STARTFONT 2.1
FONT -thai-dbthaitext-medium-r-normal--69-501-100-100-p-207-tis620-0
SIZE 50 100 100
FONTBOUNDINGBOX 91 80 -22 -29
STARTPROPERTIES 25
FOUNDRY "thai"
FAMILY_NAME "dbthaitext"
WEIGHT_NAME "medium"
SLANT "r"
SETWIDTH_NAME "normal"
ADD_STYLE_NAME ""
PIXEL_SIZE 69
POINT_SIZE 501
RESOLUTION_X 100
RESOLUTION_Y 100
SPACING "p"
AVERAGE_WIDTH 207
CHARSET_REGISTRY "tis620"
CHARSET_ENCODING "0"
FONT "-thai-dbthaitext-medium-r-normal--69-501-100-100-p-207-tis620-0"
COPYRIGHT "Typeface (c) The Monotype Corporation plc. Data (c) The Monotype Corporation plc/Type Solutions Inc. 1990-1992. All Rights Reserved"
RAW_PIXELSIZE 1000
RAW_POINTSIZE 723
RAW_ASCENT 736
RAW_DESCENT 415
RAW_AVERAGE_WIDTH 2994
FACE_NAME "DBThaiTexthickne5"
DEFAULT_CHAR 0
FONT_ASCENT 51
FONT_DESCENT 29
ENDPROPERTIES
CHARS 190
STARTCHAR space
ENCODING 32
SWIDTH 244 0
DWIDTH 17 0
BBX 0 0 0 0
BITMAP
ENDCHAR
STARTCHAR exclam
ENCODING 33
SWIDTH 172 0
DWIDTH 12 0
BBX 3 30 5 0
BITMAP
e0
e0
e0
e0
e0
e0
e0
e0
e0
e0
e0
e0
e0
e0
e0
e0
e0
e0
e0
40
40
40
40
00
00
00
e0
e0
e0
e0
ENDCHAR
STARTCHAR quotedbl
ENCODING 34
SWIDTH 216 0
DWIDTH 15 0
BBX 11 10 2 19
BITMAP
f1e0
f1e0
f1e0
f1e0
f1e0
f1e0
f1e0
60c0
60c0
60c0
ENDCHAR
STARTCHAR numbersign
ENCODING 35
SWIDTH 331 0
DWIDTH 23 0
BBX 22 30 1 -1
BITMAP
00e0f0
00e0e0
00e0e0
01e0e0
01c0e0
01c1e0
01c1c0
01c1c0
3ffffc
3ffffc
3ffffc
038380
038380
038380
078380
070380
070780
070780
fffff8
fffff8
fffff8
0e0f00
0e0e00
0e0e00
0e0e00
1e0e00
1c0e00
1c1e00
1c1c00
0c0c00
ENDCHAR
STARTCHAR dollar
ENCODING 36
SWIDTH 331 0
DWIDTH 23 0
BBX 20 37 1 -5
BITMAP
007000
007000
01fc00
07ff00
1fff80
1f77c0
3c71c0
7870e0
7070e0
7070e0
707000
707000
787000
3c7000
3e7000
1ff000
0ffe00
07ff80
00ffc0
0077e0
0071e0
0070f0
007070
f07070
f07070
707070
707070
7870e0
7871e0
3e77c0
1fff80
0fff00
01fc00
007000
007000
007000
007000
ENDCHAR
STARTCHAR percent
ENCODING 37
SWIDTH 532 0
DWIDTH 37 0
BBX 35 30 1 -1
BITMAP
000000e000
0fc000c000
1fe001c000
3ff0018000
7038038000
e01c070000
e01c070000
e01c0e0000
e01c0c0000
e01c1c0000
e01c180000
7838380000
3ff0300000
1fe0700000
0f80e00000
0000c00000
0001c07e00
000180ff00
000381ff80
00030381c0
00070700e0
000e0700e0
000c0700e0
001c0700e0
00180700e0
00380381c0
003003c3c0
007001ff80
006000ff00
00c0003c00
ENDCHAR
STARTCHAR ampersand
ENCODING 38
SWIDTH 403 0
DWIDTH 28 0
BBX 24 31 2 -1
BITMAP
001000
01fe00
03ff00
07cf80
070380
0f03c0
0f03c0
0f03c0
0f03c0
070380
078f80
03df00
03fe00
01f800
03f000
0ff800
1f3c3c
3e3e3c
7c1f38
780fb8
f807b8
f003f0
f003f0
f001e0
f800f0
7801f8
7c07fc
3fffbc
1fff1e
0ffe0f
03f000
ENDCHAR
STARTCHAR apostrophe
ENCODING 39
SWIDTH 115 0
DWIDTH 8 0
BBX 4 10 2 19
BITMAP
f0
f0
f0
f0
f0
f0
f0
60
60
60
ENDCHAR
STARTCHAR parenleft
ENCODING 40
SWIDTH 201 0
DWIDTH 14 0
BBX 9 39 3 -9
BITMAP
0380
0380
0700
0e00
0e00
1c00
1c00
3c00
3800
3800
7800
7000
7000
7000
f000
e000
e000
e000
e000
e000
e000
e000
e000
f000
7000
7000
7000
7800
3800
3800
3800
1c00
1c00
0c00
0e00
0600
0700
0300
0180
ENDCHAR
STARTCHAR parenright
ENCODING 41
SWIDTH 201 0
DWIDTH 14 0
BBX 8 39 2 -9
BITMAP
c0
e0
60
30
30
38
18
1c
0c
0c
0e
0e
06
06
07
07
07
07
07
07
07
07
07
07
06
06
0e
0e
0c
0c
1c
18
18
30
30
70
60
e0
c0
ENDCHAR
STARTCHAR asterisk
ENCODING 42
SWIDTH 230 0
DWIDTH 16 0
BBX 12 12 2 19
BITMAP
0600
0e00
0e00
8e20
ecf0
fff0
3fc0
0f00
1f80
39c0
71c0
30c0
ENDCHAR
STARTCHAR plus
ENCODING 43
SWIDTH 345 0
DWIDTH 24 0
BBX 20 20 2 0
BITMAP
007000
007000
007000
007000
007000
007000
007000
007000
007000
fffff0
fffff0
007000
007000
007000
007000
007000
007000
007000
007000
007000
ENDCHAR
STARTCHAR comma
ENCODING 44
SWIDTH 172 0
DWIDTH 12 0
BBX 6 9 3 -4
BITMAP
78
fc
fc
fc
7c
0c
18
30
e0
ENDCHAR
STARTCHAR minus
ENCODING 45
SWIDTH 201 0
DWIDTH 14 0
BBX 10 2 2 10
BITMAP
ffc0
ffc0
ENDCHAR
STARTCHAR period
ENCODING 46
SWIDTH 172 0
DWIDTH 12 0
BBX 6 6 2 0
BITMAP
78
fc
fc
fc
78
30
ENDCHAR
STARTCHAR slash
ENCODING 47
SWIDTH 172 0
DWIDTH 12 0
BBX 12 30 0 -1
BITMAP
0070
0060
0060
00e0
00c0
00c0
01c0
0180
0180
0180
0300
0300
0300
0700
0600
0600
0e00
0c00
0c00
1c00
1800
1800
3800
3000
3000
7000
6000
6000
e000
c000
ENDCHAR
STARTCHAR 0
ENCODING 48
SWIDTH 288 0
DWIDTH 20 0
BBX 16 26 2 -1
BITMAP
07e0
0ff0
1ff8
3c3c
781e
700e
6006
6007
e007
e007
e007
e007
e007
e007
e007
e007
e007
e007
6006
6006
700e
381e
3c3c
1ff8
0ff0
03c0
ENDCHAR
STARTCHAR 1
ENCODING 49
SWIDTH 288 0
DWIDTH 20 0
BBX 8 25 4 0
BITMAP
03
07
07
0f
3f
ff
ff
07
07
07
07
07
07
07
07
07
07
07
07
07
07
07
07
07
07
ENDCHAR
STARTCHAR 2
ENCODING 50
SWIDTH 288 0
DWIDTH 20 0
BBX 17 26 1 -1
BITMAP
03f000
0ffc00
3ffe00
3c1f00
780700
700780
700380
700380
700380
000780
000700
000f00
003e00
00fc00
03f000
07e000
0f8000
1e0000
3c0000
780000
700000
700000
e00000
ffff80
ffff80
fe0000
ENDCHAR
STARTCHAR 3
ENCODING 51
SWIDTH 288 0
DWIDTH 20 0
BBX 17 26 1 -1
BITMAP
07e000
1ffc00
3ffe00
3c1e00
780f00
700700
700700
700700
000700
000f00
003e00
01fc00
01fc00
01fe00
000f00
000780
000380
000380
e00380
e00380
700780
700700
3c1f00
3ffe00
1ff800
03e000
ENDCHAR
STARTCHAR 4
ENCODING 52
SWIDTH 288 0
DWIDTH 20 0
BBX 17 25 1 0
BITMAP
001c00
001c00
003c00
007c00
00fc00
00fc00
01dc00
039c00
079c00
071c00
0e1c00
1e1c00
3c1c00
381c00
701c00
f01c00
e01c00
ffff80
ffff80
001c00
001c00
001c00
001c00
001c00
001c00
ENDCHAR
STARTCHAR 5
ENCODING 53
SWIDTH 288 0
DWIDTH 20 0
BBX 17 25 1 -1
BITMAP
1fff00
3fff00
380000
380000
380000
380000
380000
300000
73f000
7ffc00
7c3e00
781f00
700f00
000780
000780
000780
000780
000780
f00780
f00700
780f00
7c3e00
3ffc00
1ff800
03c000
ENDCHAR
STARTCHAR 6
ENCODING 54
SWIDTH 288 0
DWIDTH 20 0
BBX 17 26 1 -1
BITMAP
03f000
0ffc00
1ffe00
3e1f00
3c0f00
780700
700700
700000
f00000
e0c000
e7f800
effe00
fe1e00
f80f00
f00700
f00780
f00780
f00780
f00780
700780
700700
780700
3c0e00
1f3e00
0ff800
03e000
ENDCHAR
STARTCHAR 7
ENCODING 55
SWIDTH 288 0
DWIDTH 20 0
BBX 17 25 2 0
BITMAP
ffff80
ffff80
000780
000700
000e00
000e00
001c00
001c00
003800
007000
007000
00e000
00e000
01c000
01c000
038000
038000
078000
070000
070000
0f0000
0e0000
0e0000
1e0000
0e0000
ENDCHAR
STARTCHAR 8
ENCODING 56
SWIDTH 288 0
DWIDTH 20 0
BBX 17 26 1 -1
BITMAP
07e000
1ffc00
3f7e00
381e00
780f00
700700
700700
700700
780f00
381e00
1e7c00
0ff800
1ffc00
3c1e00
780f00
700700
f00780
e00780
e00780
f00780
f00780
780f00
7c3e00
3ffe00
1ff800
03e000
ENDCHAR
STARTCHAR 9
ENCODING 57
SWIDTH 288 0
DWIDTH 20 0
BBX 17 26 1 -1
BITMAP
07e000
1ff800
3ffc00
7c1e00
700f00
f00700
f00700
f00700
f00780
f00780
f00780
f00f80
781f80
7c3f80
3ffb80
0ff380
000780
000780
000700
f00700
700f00
781e00
7c7e00
3ffc00
1ff000
07c000
ENDCHAR
STARTCHAR colon
ENCODING 58
SWIDTH 172 0
DWIDTH 12 0
BBX 6 24 3 0
BITMAP
78
fc
fc
fc
fc
78
00
00
00
00
00
00
00
00
00
00
00
00
78
fc
fc
fc
78
10
ENDCHAR
STARTCHAR semicolon
ENCODING 59
SWIDTH 172 0
DWIDTH 12 0
BBX 7 28 2 -4
BITMAP
30
78
fc
fc
fc
78
00
00
00
00
00
00
00
00
00
00
00
00
00
7c
7e
7e
7e
7e
06
0c
18
70
ENDCHAR
STARTCHAR less
ENCODING 60
SWIDTH 345 0
DWIDTH 24 0
BBX 20 20 2 0
BITMAP
000010
000070
0001f0
0007f0
003fc0
00fe00
03f800
1fe000
7f0000
fc0000
f00000
fc0000
3f8000
0fe000
03fc00
007f00
001fe0
0007f0
0000f0
000030
ENDCHAR
STARTCHAR equal
ENCODING 61
SWIDTH 345 0
DWIDTH 24 0
BBX 20 9 2 5
BITMAP
fffff0
fffff0
000000
000000
000000
000000
000000
fffff0
fffff0
ENDCHAR
STARTCHAR greater
ENCODING 62
SWIDTH 345 0
DWIDTH 24 0
BBX 20 20 2 0
BITMAP
800000
c00000
f80000
fe0000
3fc000
0ff000
01fc00
007f80
000fe0
0003f0
0000f0
0003f0
001fc0
007f00
03fc00
0fe000
7f8000
fe0000
f00000
c00000
ENDCHAR
STARTCHAR question
ENCODING 63
SWIDTH 331 0
DWIDTH 23 0
BBX 18 31 3 0
BITMAP
03f800
0ffe00
1fff00
3fff80
7c0780
7803c0
7003c0
f003c0
f003c0
f003c0
0003c0
0007c0
000780
000f00
003e00
007c00
007800
00f000
01e000
01e000
01e000
01e000
01e000
000000
000000
000000
000000
01e000
01e000
01e000
01e000
ENDCHAR
STARTCHAR at
ENCODING 64
SWIDTH 604 0
DWIDTH 42 0
BBX 37 37 2 -6
BITMAP
0000fe0000
0007ffc000
001ffff800
007ffffc00
00fc007f00
03f0001f80
03c00007c0
07800003e0
0f000001e0
1e003800f0
1c01fe3870
3c03ff7878
3807ef7078
700f01f038
701e01f038
703c01e038
e03c01e038
e07801e038
e07801c038
e07801c038
e07803c078
e078038070
e0780780f0
f0780781e0
703c0f83c0
703e1fc7c0
781ffbff80
380fe1fe00
3c0100f800
1e00000000
1f00000000
0fc0000000
07f0000000
01fc00e000
00ff07e000
003fffe000
0003fe0000
ENDCHAR
STARTCHAR A
ENCODING 65
SWIDTH 403 0
DWIDTH 28 0
BBX 26 30 1 0
BITMAP
001f0000
003f0000
003f0000
003f8000
007f8000
007f8000
0073c000
00f3c000
00f3c000
01e1e000
01e1e000
01e0e000
03c0f000
03c0f000
03c07000
07807800
07807800
0f803c00
0ffffc00
0ffffc00
1ffffe00
1e001e00
1e001e00
3e000f00
3c000f00
7c000f00
78000780
78000780
f8000780
700003c0
ENDCHAR
STARTCHAR B
ENCODING 66
SWIDTH 403 0
DWIDTH 28 0
BBX 23 30 3 0
BITMAP
ffff00
ffffc0
fffff0
f003f0
f000f8
f00078
f0007c
f00038
f00078
f00078
f00078
f000f8
f001f0
ffffe0
ffffc0
fffff0
f000f8
f0003c
f0003c
f0001e
f0001e
f0001e
f0001e
f0003e
f0003c
f0007c
f000f8
fffff0
ffffe0
ffff80
ENDCHAR
STARTCHAR C
ENCODING 67
SWIDTH 432 0
DWIDTH 30 0
BBX 26 32 2 -1
BITMAP
003f0000
01ffe000
03fff800
07fffc00
0fc07e00
1f001e00
3e000f00
3c000f80
7c000780
78000780
78000000
f8000000
f0000000
f0000000
f0000000
f0000000
f0000000
f0000000
f0000000
f0000000
f80003c0
780003c0
78000780
7c000780
3c000f80
3e000f00
1f001f00
0fc07e00
0ffffc00
03fff800
01ffe000
003f8000
ENDCHAR
STARTCHAR D
ENCODING 68
SWIDTH 432 0
DWIDTH 30 0
BBX 24 30 4 0
BITMAP
fffe00
ffff80
ffffe0
f003f0
f000f8
f0007c
f0003c
f0003e
f0001e
f0001e
f0000f
f0000f
f0000f
f0000f
f0000f
f0000f
f0000f
f0000f
f0001f
f0001f
f0001e
f0001e
f0003e
f0003c
f0007c
f000f8
f003f0
ffffe0
ffff80
fffe00
ENDCHAR
STARTCHAR E
ENCODING 69
SWIDTH 403 0
DWIDTH 28 0
BBX 21 30 4 0
BITMAP
fffff8
fffff8
fffff8
f00000
f00000
f00000
f00000
f00000
f00000
f00000
f00000
f00000
f00000
fffff0
fffff0
fffff0
f00000
f00000
f00000
f00000
f00000
f00000
f00000
f00000
f00000
f00000
f00000
fffff8
fffff8
fffff8
ENDCHAR
STARTCHAR F
ENCODING 70
SWIDTH 360 0
DWIDTH 25 0
BBX 20 30 4 0
BITMAP
fffff0
fffff0
fffff0
f00000
f00000
f00000
f00000
f00000
f00000
f00000
f00000
f00000
f00000
ffffc0
ffffc0
ffffc0
f00000
f00000
f00000
f00000
f00000
f00000
f00000
f00000
f00000
f00000
f00000
f00000
f00000
f00000
ENDCHAR
STARTCHAR G
ENCODING 71
SWIDTH 460 0
DWIDTH 32 0
BBX 28 32 2 -1
BITMAP
001fe000
00fffc00
03fffe00
07ffff80
0fc01fc0
1f0007c0
1e0003e0
3c0001e0
3c0001e0
780001f0
78000000
70000000
f0000000
f0000000
f0000000
f001fff0
f001fff0
f001fff0
f00000f0
f00000f0
f00000f0
780000f0
780000f0
7c0001f0
3c0001f0
3e0003f0
1f0007f0
0f801f70
07e07e70
03fffc70
00fff070
003fc000
ENDCHAR
STARTCHAR H
ENCODING 72
SWIDTH 432 0
DWIDTH 30 0
BBX 24 30 3 0
BITMAP
f0000f
f0000f
f0000f
f0000f
f0000f
f0000f
f0000f
f0000f
f0000f
f0000f
f0000f
f0000f
f0000f
ffffff
ffffff
ffffff
f0000f
f0000f
f0000f
f0000f
f0000f
f0000f
f0000f
f0000f
f0000f
f0000f
f0000f
f0000f
f0000f
f0000f
ENDCHAR
STARTCHAR I
ENCODING 73
SWIDTH 172 0
DWIDTH 12 0
BBX 4 30 4 0
BITMAP
f0
f0
f0
f0
f0
f0
f0
f0
f0
f0
f0
f0
f0
f0
f0
f0
f0
f0
f0
f0
f0
f0
f0
f0
f0
f0
f0
f0
f0
f0
ENDCHAR
STARTCHAR J
ENCODING 74
SWIDTH 302 0
DWIDTH 21 0
BBX 17 31 1 -1
BITMAP
000780
000780
000780
000780
000780
000780
000780
000780
000780
000780
000780
000780
000780
000780
000780
000780
000780
000780
000780
000780
f00780
f00780
f00780
f00780
f00f80
f00f80
781f00
7e7f00
3ffe00
1ffc00
07f000
ENDCHAR
STARTCHAR K
ENCODING 75
SWIDTH 403 0
DWIDTH 28 0
BBX 24 30 3 0
BITMAP
f0001e
f0003e
f0007c
f000f8
f001f0
f003e0
f00fc0
f01f80
f03f00
f07e00
f0fc00
f1f000
f3f000
f7f800
fffc00
ff3c00
fe3e00
fc1f00
f80f00
f00f80
f007c0
f003c0
f001e0
f001f0
f000f0
f00078
f0007c
f0003c
f0001e
f0001f
ENDCHAR
STARTCHAR L
ENCODING 76
SWIDTH 331 0
DWIDTH 23 0
BBX 19 30 3 0
BITMAP
f00000
f00000
f00000
f00000
f00000
f00000
f00000
f00000
f00000
f00000
f00000
f00000
f00000
f00000
f00000
f00000
f00000
f00000
f00000
f00000
f00000
f00000
f00000
f00000
f00000
f00000
f00000
ffffe0
ffffe0
ffffe0
ENDCHAR
STARTCHAR M
ENCODING 77
SWIDTH 504 0
DWIDTH 35 0
BBX 29 30 3 0
BITMAP
fc0001f8
fc0001f8
fe0003f8
fe0003f8
fe0003f8
ff0007f8
ff0007f8
f7000778
f7800f78
f7800f78
f3800e78
f3c01e78
f3c01e78
f1c03c78
f1e03c78
f1e03878
f0e07878
f0f07878
f0f07078
f070f078
f078f078
f078e078
f039e078
f03de078
f03dc078
f01fc078
f01fc078
f00f8078
f00f8078
f00f8078
ENDCHAR
STARTCHAR N
ENCODING 78
SWIDTH 432 0
DWIDTH 30 0
BBX 24 30 3 0
BITMAP
f8000f
fc000f
fc000f
fe000f
ff000f
ff000f
ff800f
f7800f
f3c00f
f3e00f
f1e00f
f0f00f
f0f80f
f0780f
f03c0f
f03c0f
f01e0f
f01f0f
f00f0f
f0078f
f007cf
f003cf
f001ef
f001ff
f000ff
f0007f
f0007f
f0003f
f0003f
f0001f
ENDCHAR
STARTCHAR O
ENCODING 79
SWIDTH 460 0
DWIDTH 32 0
BBX 29 32 2 -1
BITMAP
001fc000
00fff800
03fffe00
07ffff00
0fc03f80
1f000fc0
1e0007c0
3c0003e0
380001e0
780001f0
780000f0
700000f0
f0000078
f0000078
f0000078
f0000078
f0000078
f0000078
f0000078
f0000078
700000f0
700000f0
780000f0
780001e0
3c0003e0
3e0003c0
1f000fc0
0fc03f80
07ffff00
03fffe00
00fff800
001fc000
ENDCHAR
STARTCHAR P
ENCODING 80
SWIDTH 403 0
DWIDTH 28 0
BBX 22 30 4 0
BITMAP
ffff00
ffffc0
fffff0
f001f0
f000f8
f00078
f00078
f0003c
f0003c
f0003c
f00078
f00078
f000f8
f001f0
ffffe0
ffffc0
ffff00
f00000
f00000
f00000
f00000
f00000
f00000
f00000
f00000
f00000
f00000
f00000
f00000
f00000
ENDCHAR
STARTCHAR Q
ENCODING 81
SWIDTH 460 0
DWIDTH 32 0
BBX 29 33 2 -2
BITMAP
001fc000
00fff800
03fffe00
07ffff00
0fc03f80
1f000fc0
1e0007c0
3c0003e0
380001e0
780001f0
780000f0
700000f0
f0000078
f0000078
f0000078
f0000078
f0000078
f0000078
f0000078
f0000078
700000f8
700000f0
780020f0
780061f0
3c00f3e0
3e007fc0
1f003fc0
0fc01f80
07ffff80
03ffffe0
00fff9f0
001fc0f0
00000060
ENDCHAR
STARTCHAR R
ENCODING 82
SWIDTH 432 0
DWIDTH 30 0
BBX 24 30 4 0
BITMAP
ffffc0
fffff8
fffffc
f000fc
f0003e
f0001e
f0001e
f0001e
f0001e
f0001e
f0001e
f0001e
f0003c
f000f8
fffff8
ffffe0
fffff8
f0007c
f0003e
f0003e
f0001e
f0001e
f0001e
f0001e
f0001e
f0001e
f0001e
f0001e
f0001f
f0000f
ENDCHAR
STARTCHAR S
ENCODING 83
SWIDTH 403 0
DWIDTH 28 0
BBX 24 32 2 -1
BITMAP
01ff00
07ffc0
0ffff0
1f87f8
3e00fc
3c007c
38003c
78001e
78001e
78001e
780000
7c0000
3f0000
3ff000
1ffe00
07ffe0
00fff8
000ffc
0001fe
00003e
00001f
f0000f
f0000f
f0000f
f0000f
78001e
7c003e
3e007c
1ffffc
0ffff0
07ffe0
00ff00
ENDCHAR
STARTCHAR T
ENCODING 84
SWIDTH 360 0
DWIDTH 25 0
BBX 24 30 1 0
BITMAP
ffffff
ffffff
ffffff
003c00
003c00
003c00
003c00
003c00
003c00
003c00
003c00
003c00
003c00
003c00
003c00
003c00
003c00
003c00
003c00
003c00
003c00
003c00
003c00
003c00
003c00
003c00
003c00
003c00
003c00
003c00
ENDCHAR
STARTCHAR U
ENCODING 85
SWIDTH 432 0
DWIDTH 30 0
BBX 24 31 3 -1
BITMAP
f0000f
f0000f
f0000f
f0000f
f0000f
f0000f
f0000f
f0000f
f0000f
f0000f
f0000f
f0000f
f0000f
f0000f
f0000f
f0000f
f0000f
f0000f
f0000f
f0000f
f0000f
f0000f
f0000f
f8000f
78001e
7c003e
3e007c
1f81fc
0ffff8
07ffe0
00ff00
ENDCHAR
STARTCHAR V
ENCODING 86
SWIDTH 403 0
DWIDTH 28 0
BBX 26 30 1 0
BITMAP
f8000380
780007c0
78000780
7c000780
3c000f80
3e000f00
3e000f00
1e001e00
1f001e00
1f001e00
0f003c00
0f803c00
0f803c00
07807800
07c07800
03c07800
03c0f000
03e0f000
01e0f000
01e1e000
01f1e000
00f1c000
00f3c000
00fbc000
007b8000
007f8000
007f8000
003f0000
003f0000
001f0000
ENDCHAR
STARTCHAR W
ENCODING 87
SWIDTH 561 0
DWIDTH 39 0
BBX 38 30 1 0
BITMAP
f800780038
f800fc007c
7800fc007c
7800fc0078
7c01fc0078
7c01fe00f8
3c01fe00f0
3c01ce00f0
3e03cf00f0
3e03cf01f0
1e03cf01e0
1e078701e0
1e078781e0
1f078783e0
0f070383c0
0f0f03c3c0
0f0f03c3c0
0f8f03c3c0
078e01c780
079e01e780
079e01e780
039c01e780
03fc00ff00
03fc00ff00
03fc00ff00
01f800fe00
01f8007e00
01f8007e00
01f0007e00
00f0003c00
ENDCHAR
STARTCHAR X
ENCODING 88
SWIDTH 403 0
DWIDTH 28 0
BBX 26 30 1 0
BITMAP
7c000780
3c000f80
3e001f00
1f003e00
0f803c00
07807c00
07c0f800
03e0f000
01e1f000
01f3e000
00fbc000
007fc000
007f8000
003f0000
001e0000
003f0000
007f8000
007fc000
00fbc000
01f3e000
03e1f000
03e0f000
07c0f800
0f807c00
1f803c00
1f003e00
3e001f00
7e000f00
7c000f80
780007c0
ENDCHAR
STARTCHAR Y
ENCODING 89
SWIDTH 403 0
DWIDTH 28 0
BBX 26 30 1 0
BITMAP
f80007c0
f80007c0
7c000f80
3c000f80
3e001f00
1f003e00
0f003e00
0f807c00
07807800
03c0f800
03e1f000
01e1e000
01f3e000
00f7c000
007f8000
007f8000
003f0000
001e0000
001e0000
001e0000
001e0000
001e0000
001e0000
001e0000
001e0000
001e0000
001e0000
001e0000
001e0000
001e0000
ENDCHAR
STARTCHAR Z
ENCODING 90
SWIDTH 360 0
DWIDTH 25 0
BBX 23 30 1 0
BITMAP
7ffffe
7ffffe
7ffffe
00003e
00007c
0000f8
0001f0
0001f0
0003e0
0007c0
000f80
000f80
001f00
003e00
007c00
007c00
00f800
01f000
03e000
03e000
07c000
0f8000
1f0000
1f0000
3e0000
7c0000
f80000
fffffe
fffffe
fffffe
ENDCHAR
STARTCHAR bracketleft
ENCODING 91
SWIDTH 172 0
DWIDTH 12 0
BBX 7 38 3 -8
BITMAP
fe
fe
e0
e0
e0
e0
e0
e0
e0
e0
e0
e0
e0
e0
e0
e0
e0
e0
e0
e0
e0
e0
e0
e0
e0
e0
e0
e0
e0
e0
e0
e0
e0
e0
e0
e0
fe
fe
ENDCHAR
STARTCHAR backslash
ENCODING 92
SWIDTH 172 0
DWIDTH 12 0
BBX 12 31 0 -1
BITMAP
c000
e000
6000
6000
7000
3000
3000
3800
1800
1800
1c00
0c00
0c00
0c00
0600
0600
0600
0300
0300
0300
0380
0180
0180
01c0
00c0
00c0
00e0
0060
0060
0070
0030
ENDCHAR
STARTCHAR bracketright
ENCODING 93
SWIDTH 172 0
DWIDTH 12 0
BBX 7 38 1 -8
BITMAP
fe
fe
0e
0e
0e
0e
0e
0e
0e
0e
0e
0e
0e
0e
0e
0e
0e
0e
0e
0e
0e
0e
0e
0e
0e
0e
0e
0e
0e
0e
0e
0e
0e
0e
0e
0e
fe
fe
ENDCHAR
STARTCHAR asciicircum
ENCODING 94
SWIDTH 273 0
DWIDTH 19 0
BBX 16 16 2 14
BITMAP
03c0
03c0
03c0
07e0
07e0
0e70
0e70
0e78
1c38
1c38
381c
381c
701e
700e
700e
e007
ENDCHAR
STARTCHAR underscore
ENCODING 95
SWIDTH 331 0
DWIDTH 23 0
BBX 25 2 -1 -7
BITMAP
ffffff80
ffffff80
ENDCHAR
STARTCHAR grave
ENCODING 96
SWIDTH 172 0
DWIDTH 12 0
BBX 12 12 0 6
BITMAP
0700
3fc0
7fe0
7fe0
fff0
fff0
fff0
fff0
fff0
7fe0
3fc0
1f80
ENDCHAR
STARTCHAR a
ENCODING 97
SWIDTH 331 0
DWIDTH 23 0
BBX 20 24 2 -1
BITMAP
03f800
0ffe00
1fff80
3fff80
7c07c0
7803c0
7003c0
7003c0
0003c0
0003c0
007fc0
0fffc0
3fffc0
7f83c0
f803c0
f003c0
e003c0
e003c0
e007c0
f00fc0
783fc0
7ff9f0
3ff1f0
0fc0f0
ENDCHAR
STARTCHAR b
ENCODING 98
SWIDTH 331 0
DWIDTH 23 0
BBX 20 31 2 -1
BITMAP
e00000
e00000
e00000
e00000
e00000
e00000
e00000
e1f800
e7fe00
efff80
ffff80
ff0fc0
fc03c0
f803e0
f801e0
f001e0
f000f0
f000f0
e000f0
e000f0
e000f0
e000f0
f001e0
f001e0
f801e0
f803c0
fc07c0
ff9f80
efff00
e7fe00
01f800
ENDCHAR
STARTCHAR c
ENCODING 99
SWIDTH 302 0
DWIDTH 21 0
BBX 19 24 1 -1
BITMAP
01f800
07fe00
0fff00
1fff80
3f07c0
3c03c0
7801e0
7801e0
f801e0
f00000
f00000
f00000
f00000
f00000
f00000
f001e0
f801e0
7801e0
7c03c0
3e07c0
3f9f80
1fff00
07fe00
01f800
ENDCHAR
STARTCHAR d
ENCODING 100
SWIDTH 331 0
DWIDTH 23 0
BBX 19 31 1 -1
BITMAP
0000e0
0000e0
0000e0
0000e0
0000e0
0000e0
0000e0
03f0e0
07fce0
1ffee0
3fffe0
3f0fe0
7c03e0
7801e0
7801e0
7001e0
f000e0
f000e0
f000e0
f000e0
f000e0
f000e0
f000e0
7801e0
7801e0
7c03e0
3e03e0
1f0fe0
1ffee0
07fce0
01f800
ENDCHAR
STARTCHAR e
ENCODING 101
SWIDTH 331 0
DWIDTH 23 0
BBX 20 24 1 -1
BITMAP
00fc00
03fe00
0fff00
1f9f80
3e03c0
3c03e0
7801e0
7801e0
7800f0
f000f0
f000f0
fffff0
fffff0
f00000
f00000
f00000
f000e0
7801e0
7801e0
3c03c0
3e0fc0
1f9f80
07ff00
01f800
ENDCHAR
STARTCHAR f
ENCODING 102
SWIDTH 172 0
DWIDTH 12 0
BBX 10 31 1 0
BITMAP
03c0
0fc0
0fc0
1fc0
1e00
1c00
1c00
1c00
1c00
ffc0
ffc0
ffc0
1c00
1c00
1c00
1c00
1c00
1c00
1c00
1c00
1c00
1c00
1c00
1c00
1c00
1c00
1c00
1c00
1c00
1c00
1c00
ENDCHAR
STARTCHAR g
ENCODING 103
SWIDTH 331 0
DWIDTH 23 0
BBX 19 32 1 -9
BITMAP
01f000
07fce0
1ffee0
1fffe0
3f0fe0
3c07e0
7c03e0
7801e0
7801e0
7000e0
f000e0
f000e0
f000e0
f000e0
f000e0
f000e0
7001e0
7801e0
7803e0
3c07e0
3f9ee0
1ffce0
07f8e0
01e0e0
0001e0
7001c0
7801c0
7803c0
3e0780
1fff80
0ffe00
03f800
ENDCHAR
STARTCHAR h
ENCODING 104
SWIDTH 331 0
DWIDTH 23 0
BBX 17 30 3 0
BITMAP
e00000
e00000
e00000
e00000
e00000
e00000
e00000
e00000
e3fc00
e7fe00
efff00
fc0f80
f80780
f00380
e00380
e00380
e00380
e00380
e00380
e00380
e00380
e00380
e00380
e00380
e00380
e00380
e00380
e00380
e00380
e00380
ENDCHAR
STARTCHAR i
ENCODING 105
SWIDTH 129 0
DWIDTH 9 0
BBX 3 30 3 0
BITMAP
e0
e0
e0
e0
00
00
00
00
e0
e0
e0
e0
e0
e0
e0
e0
e0
e0
e0
e0
e0
e0
e0
e0
e0
e0
e0
e0
e0
e0
ENDCHAR
STARTCHAR j
ENCODING 106
SWIDTH 129 0
DWIDTH 9 0
BBX 7 39 -1 -9
BITMAP
0e
0e
0e
0e
00
00
00
00
0e
0e
0e
0e
0e
0e
0e
0e
0e
0e
0e
0e
0e
0e
0e
0e
0e
0e
0e
0e
0e
0e
0e
0e
0e
0e
0e
1e
fe
fc
f0
ENDCHAR
STARTCHAR k
ENCODING 107
SWIDTH 302 0
DWIDTH 21 0
BBX 18 30 3 0
BITMAP
e00000
e00000
e00000
e00000
e00000
e00000
e00000
e00000
e00f00
e01e00
e03c00
e07800
e0f000
e1e000
e3c000
e78000
ef8000
ffc000
fde000
f9e000
f0f000
e0f800
e07800
e03c00
e03c00
e01e00
e01f00
e00f00
e00780
e007c0
ENDCHAR
STARTCHAR l
ENCODING 108
SWIDTH 129 0
DWIDTH 9 0
BBX 3 30 3 0
BITMAP
e0
e0
e0
e0
e0
e0
e0
e0
e0
e0
e0
e0
e0
e0
e0
e0
e0
e0
e0
e0
e0
e0
e0
e0
e0
e0
e0
e0
e0
e0
ENDCHAR
STARTCHAR m
ENCODING 109
SWIDTH 504 0
DWIDTH 35 0
BBX 28 23 3 0
BITMAP
01f81f80
e7fc7fc0
effe7fe0
ee1fe1e0
fc0fc0f0
f80f80f0
f0078070
e0070070
e0070070
e0070070
e0070070
e0070070
e0070070
e0070070
e0070070
e0070070
e0070070
e0070070
e0070070
e0070070
e0070070
e0070070
e0070070
ENDCHAR
STARTCHAR n
ENCODING 110
SWIDTH 331 0
DWIDTH 23 0
BBX 17 23 3 0
BITMAP
01f800
e7fe00
efff00
efff00
fe0f80
f80780
f00380
f00380
e00380
e00380
e00380
e00380
e00380
e00380
e00380
e00380
e00380
e00380
e00380
e00380
e00380
e00380
e00380
ENDCHAR
STARTCHAR o
ENCODING 111
SWIDTH 331 0
DWIDTH 23 0
BBX 19 24 2 -1
BITMAP
03f800
0ffe00
1fff00
3fff00
7e0f80
7807c0
f003c0
f001c0
f001e0
e001e0
e000e0
e000e0
e000e0
e000e0
e000e0
f001e0
f001e0
f003c0
7803c0
7c0780
3fff80
1fff00
0ffe00
03f000
ENDCHAR
STARTCHAR p
ENCODING 112
SWIDTH 331 0
DWIDTH 23 0
BBX 20 32 2 -9
BITMAP
01f800
e7fe00
efff00
ffff80
fe0fc0
fc03c0
f803e0
f001e0
f001e0
e000e0
e000f0
e000f0
e000f0
e000f0
f000f0
f001e0
f801e0
f801e0
fc03e0
fe07c0
ffff80
efff00
e3fe00
e0f800
e00000
e00000
e00000
e00000
e00000
e00000
e00000
e00000
ENDCHAR
STARTCHAR q
ENCODING 113
SWIDTH 331 0
DWIDTH 23 0
BBX 19 32 1 -9
BITMAP
03f800
07fce0
0ffee0
1fffe0
3e07e0
3c03e0
7801e0
7801e0
f800e0
f000e0
f000e0
f000e0
f000e0
f000e0
f000e0
f000e0
f801e0
7801e0
7c03e0
3e07e0
3fffe0
1ffee0
07fce0
01f0e0
0000e0
0000e0
0000e0
0000e0
0000e0
0000e0
0000e0
0000e0
ENDCHAR
STARTCHAR r
ENCODING 114
SWIDTH 201 0
DWIDTH 14 0
BBX 10 23 3 0
BITMAP
01c0
e7c0
e7c0
efc0
ff00
fc00
f800
f000
f000
e000
e000
e000
e000
e000
e000
e000
e000
e000
e000
e000
e000
e000
e000
ENDCHAR
STARTCHAR s
ENCODING 115
SWIDTH 302 0
DWIDTH 21 0
BBX 18 24 1 -1
BITMAP
07f000
1ffc00
3ffe00
7fff00
7c0f80
780780
700780
700000
780000
7c0000
3fc000
3ffc00
0fff00
01ff80
001f80
0007c0
0003c0
f003c0
f003c0
f807c0
7e0f80
3fff00
1ffe00
07f800
ENDCHAR
STARTCHAR t
ENCODING 116
SWIDTH 172 0
DWIDTH 12 0
BBX 10 29 1 -1
BITMAP
1c00
1c00
1c00
1c00
1c00
1c00
ffc0
ffc0
ffc0
1c00
1c00
1c00
1c00
1c00
1c00
1c00
1c00
1c00
1c00
1c00
1c00
1c00
1c00
1c00
1c00
1e00
1fc0
0fc0
07c0
ENDCHAR
STARTCHAR u
ENCODING 117
SWIDTH 331 0
DWIDTH 23 0
BBX 17 23 3 -1
BITMAP
e00380
e00380
e00380
e00380
e00380
e00380
e00380
e00380
e00380
e00380
e00380
e00380
e00380
e00380
e00380
e00780
e00780
e00f80
f01f80
7c7f80
7ffb80
3ff000
0fc000
ENDCHAR
STARTCHAR v
ENCODING 118
SWIDTH 302 0
DWIDTH 21 0
BBX 20 22 0 0
BITMAP
f000e0
7800f0
7801e0
7801e0
3803c0
3c03c0
3c03c0
1c0780
1e0780
1e0780
0e0f00
0f0f00
0f1e00
071e00
079e00
07bc00
03bc00
03b800
03f800
01f800
01f000
01f000
ENDCHAR
STARTCHAR w
ENCODING 119
SWIDTH 432 0
DWIDTH 30 0
BBX 29 22 0 0
BITMAP
f00f8070
f00f8078
700f80f0
780f80f0
781fc0f0
381fc0f0
381fc1e0
3c1dc1e0
3c39e1e0
1c39e1c0
1c38e3c0
1e38e3c0
0e70f380
0e70f380
0e707780
0f707780
07f07f00
07e03f00
07e03f00
03e03e00
03e03e00
03c01e00
ENDCHAR
STARTCHAR x
ENCODING 120
SWIDTH 302 0
DWIDTH 21 0
BBX 19 22 1 0
BITMAP
7801c0
7803c0
3c07c0
1e0780
1e0f00
0f1e00
079e00
07bc00
03f800
01f000
01f000
01f000
03f800
03f800
07bc00
0f1e00
0f1e00
1e0f00
3c0780
7c0780
7803c0
7001e0
ENDCHAR
STARTCHAR y
ENCODING 121
SWIDTH 302 0
DWIDTH 21 0
BBX 19 31 1 -9
BITMAP
f001c0
f001e0
7003c0
7803c0
7803c0
380780
3c0780
3c0700
1c0f00
1e0f00
1e1e00
0e1e00
0f1e00
0f3c00
073c00
07b800
07f800
03f800
03f000
03f000
01f000
01e000
01e000
01c000
03c000
03c000
038000
4f8000
7f0000
7e0000
7c0000
ENDCHAR
STARTCHAR z
ENCODING 122
SWIDTH 302 0
DWIDTH 21 0
BBX 18 22 1 0
BITMAP
7fff80
7fff80
7fff80
000f00
001f00
001e00
003c00
007800
007800
00f000
01e000
03c000
03c000
078000
0f0000
1e0000
1e0000
3c0000
780000
ffffc0
ffffc0
ffffc0
ENDCHAR
STARTCHAR braceleft
ENCODING 123
SWIDTH 201 0
DWIDTH 14 0
BBX 9 40 2 -9
BITMAP
0380
0780
0f80
1f00
1c00
1c00
1c00
1c00
1c00
1c00
1c00
1c00
1c00
1c00
1c00
1c00
1c00
3800
7800
f000
e000
f000
3800
3800
1c00
1c00
1c00
1c00
1c00
1c00
1c00
1c00
1c00
1c00
1c00
1c00
1e00
0f80
0f80
0380
ENDCHAR
STARTCHAR bar
ENCODING 124
SWIDTH 158 0
DWIDTH 11 0
BBX 3 39 4 -9
BITMAP
e0
e0
e0
e0
e0
e0
e0
e0
e0
e0
e0
e0
e0
e0
e0
e0
e0
e0
e0
e0
e0
e0
e0
e0
e0
e0
e0
e0
e0
e0
e0
e0
e0
e0
e0
e0
e0
e0
e0
ENDCHAR
STARTCHAR braceright
ENCODING 125
SWIDTH 201 0
DWIDTH 14 0
BBX 10 40 1 -9
BITMAP
f000
f800
fc00
7e00
1e00
0e00
0e00
0e00
0e00
0e00
0e00
0e00
0e00
0e00
0e00
0e00
0e00
0700
0780
03c0
01c0
03c0
0700
0600
0e00
0e00
0e00
0e00
0e00
0e00
0e00
0e00
0e00
0e00
0e00
0e00
1e00
fc00
fc00
f000
ENDCHAR
STARTCHAR asciitilde
ENCODING 126
SWIDTH 345 0
DWIDTH 24 0
BBX 18 7 3 11
BITMAP
3e0000
7f80c0
77c0c0
e1f1c0
c0ff80
c03f80
000e00
ENDCHAR
STARTCHAR exclamdown
ENCODING 161
SWIDTH 360 0
DWIDTH 25 0
BBX 21 24 1 0
BITMAP
01fe00
07ffc0
1f07e0
3e01f0
7800f0
fe0078
0f0038
038038
0e0038
0e0038
1c0038
1c0038
1c0038
1c0038
1c0038
1c0038
1c0038
1c0038
1c0038
1c0038
1c0038
1c0038
1c0038
1c0038
ENDCHAR
STARTCHAR cent
ENCODING 162
SWIDTH 374 0
DWIDTH 26 0
BBX 21 24 1 0
BITMAP
0fe038
1ff038
3e7838
7f3c38
619c38
e19c38
619c38
739c38
7f1c38
3e3838
003838
007038
007038
007038
007038
007038
007038
007038
007038
007038
007038
007078
03fff0
03ffe0
ENDCHAR
STARTCHAR sterling
ENCODING 163
SWIDTH 388 0
DWIDTH 27 0
BBX 24 24 0 0
BITMAP
0e0c07
1fbe07
39f707
70e387
700387
6e0387
ff8707
f18e07
e1ce07
61ce07
71ce07
3f8e07
3f0e07
000e07
000e07
000e07
000e07
000e07
000e07
000e07
000e07
000e0f
007ffe
007ffc
ENDCHAR
STARTCHAR currency
ENCODING 164
SWIDTH 360 0
DWIDTH 25 0
BBX 20 24 2 0
BITMAP
03fc00
0fff00
1e0f80
3803c0
7000e0
f000f0
e3f070
e7f870
e71870
e61c70
ee1c70
6f1870
7ff870
3ff070
3e0070
1e0070
1e0070
0e0070
0e0070
0e0070
0e0070
0e0070
0e0070
0e0070
ENDCHAR
STARTCHAR yen
ENCODING 165
SWIDTH 360 0
DWIDTH 25 0
BBX 20 24 2 0
BITMAP
060700
0f8f80
1fdfc0
38f9e0
7020e0
e00070
e3f070
e7f870
e71870
e61c70
ee1c70
ef1870
7ff870
7ff070
3e0070
1e0070
1e0070
0e0070
0e0070
0e0070
0e0070
0e0070
0e0070
0e0070
ENDCHAR
STARTCHAR brokenbar
ENCODING 166
SWIDTH 460 0
DWIDTH 32 0
BBX 27 24 1 0
BITMAP
0e1800e0
3fbe00e0
3bef00e0
70c700e0
600700e0
fe0700e0
ff0e00e0
f39e00e0
e19c00e0
e19c00e0
619c00e0
7f9c00e0
3f1c00e0
001c00e0
007fc0e0
01fff0e0
01dcfce0
039c1ee0
039c0fe0
031c03e0
039c01e0
039c01e0
01f800e0
00f800e0
ENDCHAR
STARTCHAR section
ENCODING 167
SWIDTH 288 0
DWIDTH 20 0
BBX 15 24 1 0
BITMAP
0078
00fc
01ce
018e
0186
018e
01fe
00fe
603e
e00e
700e
700e
380e
1c0e
1c0e
0e0e
0e0e
070e
078e
038e
01ce
01ee
00fe
007c
ENDCHAR
STARTCHAR diaeresis
ENCODING 168
SWIDTH 345 0
DWIDTH 24 0
BBX 19 24 1 0
BITMAP
03fc00
0fff00
3e0f80
7803c0
7001c0
2000e0
0000e0
01e0e0
03f8e0
073ce0
061ce0
061ee0
061ee0
07f7e0
03f3e0
0003e0
0001e0
0001e0
0001e0
0000e0
0000e0
0000e0
0000e0
0000e0
ENDCHAR
STARTCHAR copyright
ENCODING 169
SWIDTH 388 0
DWIDTH 27 0
BBX 26 24 1 0
BITMAP
00ff0000
03ffc000
07c1e000
0f00f000
1c007000
08003800
00003800
00003800
3f003800
7f003800
63803800
e1803800
61803800
63803800
7f81fe00
1f87ff00
039fbb80
03bc3980
03f839c0
03e039c0
03c03980
03c03980
03803f80
03801f00
ENDCHAR
STARTCHAR ordfeminine
ENCODING 170
SWIDTH 374 0
DWIDTH 26 0
BBX 24 25 1 0
BITMAP
000006
07c00e
1ff01e
3e783c
7f3cf8
619fe0
e19fe0
619cf0
739c78
7f1c38
3e3838
003838
007038
007038
007038
007038
007038
007038
007038
007038
007038
007038
007078
03fff0
03ffe0
ENDCHAR
STARTCHAR guillemotleft
ENCODING 171
SWIDTH 388 0
DWIDTH 27 0
BBX 26 26 0 0
BITMAP
00000080
000001c0
060c03c0
1fbe0780
39f70f00
70e3be00
7003f800
6e03fc00
ff871e00
f18e0f00
e1ce0700
61ce0700
71ce0700
3f8e0700
3f0e0700
000e0700
000e0700
000e0700
000e0700
000e0700
000e0700
000e0700
000e0700
000e0f00
007ffe00
007ffc00
ENDCHAR
STARTCHAR notsign
ENCODING 172
SWIDTH 475 0
DWIDTH 33 0
BBX 28 24 1 0
BITMAP
03fe0070
0fff8070
3f07c070
7c01c070
7c00e070
0f00e070
0380e070
0700e070
0e00e070
1c00e070
1c00e070
1c00e070
1c00e070
1c00e070
1c00e070
1c01e070
1f83fc70
1fc7fe70
1c66e770
186ce3f0
186ee1f0
1c66e0f0
0fe7e070
07c3c070
ENDCHAR
STARTCHAR hyphen
ENCODING 173
SWIDTH 475 0
DWIDTH 33 0
BBX 28 36 1 -12
BITMAP
03fe0070
0fff8070
3f07c070
7c01c070
7c00e070
0f00e070
0380e070
0700e070
0e00e070
1c00e070
1c00e070
1c00e070
1c00e070
1c00e070
1c00e070
1c00e070
1f80e070
1fc0e070
1c60e070
1860e070
1860e070
1c60e070
0ce7fff0
07c7ffc0
00000000
00000000
0000c070
0003f070
0007f870
00063870
00061860
000638e0
0007f1c0
0003e7c0
0001ff00
00003c00
ENDCHAR
STARTCHAR registered
ENCODING 174
SWIDTH 403 0
DWIDTH 28 0
BBX 23 36 1 -12
BITMAP
003fc0
00fff0
03e0f8
07c03c
0f001c
1fc00e
01e00e
00700e
01c00e
01800e
03800e
03800e
03800e
03800e
03800e
03800e
3f800e
7f800e
e3800e
e1800e
c1800e
e3800e
7f000e
3e000e
00070e
00070e
00070e
03f70e
0ffe0e
1c0f8e
1c0fee
1c1cfe
1c3c7e
1ff83e
0ff01e
03c00e
ENDCHAR
STARTCHAR macron
ENCODING 175
SWIDTH 403 0
DWIDTH 28 0
BBX 23 36 1 -12
BITMAP
003fc0
00fff0
03e0f8
07c03c
0f001c
1fc00e
01e00e
00700e
01c00e
01800e
03800e
03800e
03800e
03800e
03800e
03800e
3f800e
7f800e
e3800e
e1800e
c1800e
e3800e
7f000e
3e000e
000c0e
001c0e
001c0e
001c0e
0fd80e
1ff84e
1c78ce
187dee
187fbe
1cef3e
0fc61e
07820e
ENDCHAR
STARTCHAR degree
ENCODING 176
SWIDTH 316 0
DWIDTH 22 0
BBX 21 37 1 -13
BITMAP
01fc00
07ff08
0f9ff8
1e03f8
1f8000
3ff800
01ff00
001f80
000780
0003c0
07c1c0
0fe1c0
0c71c0
1c39c0
1c39c0
0c7dc0
0fedc0
07cfc0
000fc0
0007c0
0007c0
0003c0
0003c0
0003c0
000000
000000
018700
018f80
0198c0
0198c0
3b98c0
7f0fc0
c707c0
c311c0
c7f9c0
ffff80
78cf00
ENDCHAR
STARTCHAR plusminus
ENCODING 177
SWIDTH 475 0
DWIDTH 33 0
BBX 29 24 0 0
BITMAP
0e0c01c0
1fbe03e0
39f707f0
70e38e78
70039c38
6e03b838
ff873838
f18e7038
e1ce7038
61cee038
71cee038
3f8fc038
3f0fc038
000f8038
000f8038
000f0038
000f0038
000f0038
000f0038
000e0038
000e0038
000e0038
000e0038
000e0038
ENDCHAR
STARTCHAR twosuperior
ENCODING 178
SWIDTH 504 0
DWIDTH 35 0
BBX 29 24 2 0
BITMAP
06070038
0f8f8038
1fdfc038
38f9e038
7020e038
e0007038
e0f07038
c1f87038
c39c7038
c30c7038
c30c7038
e30c7038
e3f87038
61f87038
70707038
30e0f038
39c3fe38
1b83ff38
1f8773b8
0f0671f8
0f0670f8
0e037078
0e03f078
0e01e038
ENDCHAR
STARTCHAR threesuperior
ENCODING 179
SWIDTH 489 0
DWIDTH 34 0
BBX 33 24 1 0
BITMAP
03fe007000
0fff807000
3f07c07000
7c01c07000
7c00e07000
0f00e07000
0380e07000
0700e07000
0e00e07000
1c00e07000
1c00e07000
1c00e07000
1c00e07000
1c00e07000
1c00e0fc00
1c00e3ff00
1f80e7f700
1fc0ee7380
1c60fc7380
1860f87380
1860f07380
1c60f07780
0fe0e07f00
07c0e03e00
ENDCHAR
STARTCHAR acute
ENCODING 180
SWIDTH 360 0
DWIDTH 25 0
BBX 20 24 2 0
BITMAP
03fe00
0fff80
1e03c0
3801e0
7000e0
e00070
e0f070
c1f870
c39c70
c30c70
c30c70
e30c70
e3f870
61f870
707070
30e070
39c070
1b8070
1f8070
0f0070
0f0070
0e0070
0e0070
0e0070
ENDCHAR
STARTCHAR mu
ENCODING 181
SWIDTH 360 0
DWIDTH 25 0
BBX 20 24 2 0
BITMAP
060700
0f8f80
1fdfc0
38f9e0
7020e0
e00070
e0f070
c1f870
c39c70
c30c70
c30c70
e30c70
e3f870
61f870
707070
30e070
39c070
1b8070
1f8070
0f0070
0f0070
0e0070
0e0070
0e0070
ENDCHAR
STARTCHAR paragraph
ENCODING 182
SWIDTH 360 0
DWIDTH 25 0
BBX 21 24 1 0
BITMAP
01fe00
07ffc0
1f07e0
3e01f0
7800f0
fe0078
0f0038
038038
0e0038
0e0038
1c0038
1c0038
1c0038
1c0038
1c0038
1c0038
1f8038
1fc038
1c6038
186038
186038
1c6038
0fe038
07c038
ENDCHAR
STARTCHAR periodcentered
ENCODING 183
SWIDTH 374 0
DWIDTH 26 0
BBX 23 24 1 0
BITMAP
1e0030
7f00f8
7381fc
6183ce
e1878e
618f0e
778e0e
3f9c0e
1f9c0e
03b80e
03b80e
03f00e
03f00e
03e00e
03e00e
03e00e
03c00e
03c00e
03c00e
03c00e
03800e
03800e
03800e
03800e
ENDCHAR
STARTCHAR cedilla
ENCODING 184
SWIDTH 331 0
DWIDTH 23 0
BBX 20 24 1 0
BITMAP
07f000
0ffe10
1e1ff0
3803f0
7e0000
7ff000
01fc00
001f00
000780
0703c0
0703c0
0701c0
0701c0
0701c0
0701c0
0701c0
0701c0
0701c0
0701c0
0701c0
0701c0
0703c0
3fff80
3fff00
ENDCHAR
STARTCHAR onesuperior
ENCODING 185
SWIDTH 388 0
DWIDTH 27 0
BBX 26 24 1 0
BITMAP
1e003800
7f003800
73803800
61803800
e1803800
61803800
77803800
3f803800
1f803800
03803800
03803800
03803800
03803800
03803800
0381fe00
0387ff80
038f3b80
039e39c0
03b839c0
03f039c0
03e039c0
03e039c0
03c03f80
03801f00
ENDCHAR
STARTCHAR masculine
ENCODING 186
SWIDTH 388 0
DWIDTH 27 0
BBX 23 24 1 0
BITMAP
1e000e
7f000e
73800e
61800e
e1800e
61800e
77800e
3f800e
1f800e
03800e
03800e
03800e
03800e
03800e
03800e
03800e
03800e
03800e
03800e
03800e
03800e
03801e
1ffffc
1ffff8
ENDCHAR
STARTCHAR guillemotright
ENCODING 187
SWIDTH 388 0
DWIDTH 27 0
BBX 23 32 1 0
BITMAP
00000e
00000e
00000e
00000e
00000e
00000e
00000e
00000e
1c000e
3f000e
73800e
61800e
e1800e
61800e
77800e
3f800e
1f800e
03800e
03800e
03800e
03800e
03800e
03800e
03800e
03800e
03800e
03800e
03800e
03800e
03801e
1ffffc
1ffff8
ENDCHAR
STARTCHAR onequarter
ENCODING 188
SWIDTH 374 0
DWIDTH 26 0
BBX 18 24 4 0
BITMAP
3c01c0
7e01c0
e701c0
c301c0
c301c0
e301c0
ef01c0
fe01c0
f801c0
e001c0
e001c0
e0c1c0
e0c1c0
e1e1c0
e3f1c0
e739c0
ee1dc0
fc0fc0
f807c0
f003c0
e001c0
e001c0
e001c0
e001c0
ENDCHAR
STARTCHAR onehalf
ENCODING 189
SWIDTH 374 0
DWIDTH 26 0
BBX 18 32 4 0
BITMAP
0001c0
0001c0
0001c0
0001c0
0001c0
0001c0
0001c0
0001c0
3c01c0
7e01c0
e701c0
e301c0
c301c0
e301c0
ff01c0
fe01c0
f801c0
e001c0
e001c0
e0c1c0
e0c1c0
e1e1c0
e3f1c0
e739c0
ee1dc0
fc0fc0
f807c0
f003c0
e001c0
e001c0
e001c0
e001c0
ENDCHAR
STARTCHAR threequarters
ENCODING 190
SWIDTH 432 0
DWIDTH 30 0
BBX 26 24 1 0
BITMAP
1e0081c0
7f0181c0
738181c0
618181c0
e183c1c0
6183c1c0
7787e1c0
3f8661c0
1f8e71c0
038c71c0
039c31c0
039c39c0
039819c0
03b81dc0
03b00dc0
03f00fc0
03e00fc0
03e007c0
03e007c0
03c003c0
03c003c0
038001c0
038001c0
038001c0
ENDCHAR
STARTCHAR questiondown
ENCODING 191
SWIDTH 432 0
DWIDTH 30 0
BBX 26 32 1 0
BITMAP
000001c0
000001c0
000001c0
000001c0
000001c0
000001c0
000001c0
000001c0
1c0081c0
3f0081c0
738181c0
618181c0
e183c1c0
6183c1c0
7787e1c0
3f8661c0
1f8e71c0
038c71c0
038c31c0
039c39c0
039819c0
03b81dc0
03b00dc0
03f00fc0
03e00fc0
03e007c0
03e007c0
03c003c0
03c003c0
038001c0
038001c0
038001c0
ENDCHAR
STARTCHAR Agrave
ENCODING 192
SWIDTH 403 0
DWIDTH 28 0
BBX 23 24 1 0
BITMAP
003fc0
00fff0
03e0f8
07c03c
0f001c
1fc00e
01e00e
00700e
01c00e
01800e
03800e
03800e
03800e
03800e
03800e
03800e
3f800e
7f800e
e3800e
e1800e
c1800e
e3800e
7f000e
3e000e
ENDCHAR
STARTCHAR Aacute
ENCODING 193
SWIDTH 388 0
DWIDTH 27 0
BBX 21 24 2 0
BITMAP
3e0038
7f0038
e78038
c18038
c18038
e18038
778038
7f8038
1f8038
038038
038038
038038
038038
038038
1ff038
3ffc38
739f38
6387b8
e381f8
e380f8
e38078
738078
7f0038
3f0038
ENDCHAR
STARTCHAR Acircumflex
ENCODING 194
SWIDTH 345 0
DWIDTH 24 0
BBX 18 24 3 0
BITMAP
1f01c0
3f81c0
7181c0
f1c1c0
f1c1c0
f181c0
ff81c0
ff01c0
e001c0
e001c0
7001c0
3e01c0
1f01c0
3f01c0
7801c0
7001c0
e001c0
e001c0
e001c0
e001c0
e001c0
e003c0
ffff80
ffff00
ENDCHAR
STARTCHAR Atilde
ENCODING 195
SWIDTH 316 0
DWIDTH 22 0
BBX 20 24 1 0
BITMAP
03f000
0ffc20
1e3fe0
3807f0
7e0000
7fe000
03fc00
003e00
000e00
000700
000700
000700
000700
000700
000700
000700
003f00
007f00
00e700
00c300
00c300
00e700
007e00
007c00
ENDCHAR
STARTCHAR Adiaeresis
ENCODING 196
SWIDTH 360 0
DWIDTH 25 0
BBX 21 36 1 -12
BITMAP
01fe00
07ffc0
1f07e0
3e01f0
7800f0
fe0078
0f0038
038038
0e0038
0e0038
1c0038
1c0038
1c0038
1c0038
1c0038
1c0038
1f8038
1fc038
1c6038
186038
186038
1c6038
0fe038
07c038
000038
000038
000038
000038
000038
000038
000038
000038
000038
000038
000038
000038
ENDCHAR
STARTCHAR Aring
ENCODING 197
SWIDTH 345 0
DWIDTH 24 0
BBX 19 24 2 0
BITMAP
07fc00
1fff00
3c0f80
7003c0
e001c0
4001e0
0000e0
0fc0e0
1fe0e0
3cf0e0
3838e0
701ce0
701ce0
700ee0
7006e0
7007e0
7f03e0
7f83e0
79c3e0
70c1e0
70c1e0
30c1e0
3fc0e0
1f80e0
ENDCHAR
STARTCHAR AE
ENCODING 198
SWIDTH 403 0
DWIDTH 28 0
BBX 23 36 1 -12
BITMAP
003fc0
00fff0
03e0f8
07c03c
0f001c
1fc00e
01e00e
00700e
01c00e
01800e
03800e
03800e
03800e
03800e
03800e
03800e
3f800e
7f800e
e3800e
e1800e
c1800e
e3800e
7f000e
3e000e
00000e
00000e
00000e
00000e
00000e
00000e
00000e
00000e
00000e
00000e
00000e
00000e
ENDCHAR
STARTCHAR Ccedilla
ENCODING 199
SWIDTH 331 0
DWIDTH 23 0
BBX 18 24 1 0
BITMAP
07f800
0ffe00
3e0f00
780380
f00380
6001c0
0001c0
0001c0
0001c0
0001c0
0001c0
0001c0
0001c0
0001c0
0001c0
0001c0
000fc0
001fc0
0039c0
0030c0
0030c0
0031c0
001f80
001f80
ENDCHAR
STARTCHAR Egrave
ENCODING 200
SWIDTH 360 0
DWIDTH 25 0
BBX 22 25 2 0
BITMAP
000010
03fc1c
0fff3c
3f0ff8
7803f0
7001f0
e001f0
e3f7f0
e7ff70
e71c70
e61c70
ee1c70
ef1870
7ff870
7ff070
3e0070
1e0070
1e0070
0e0070
0e0070
0e0070
0e0070
0e0070
0e0070
0e0070
ENDCHAR
STARTCHAR Eacute
ENCODING 201
SWIDTH 403 0
DWIDTH 28 0
BBX 27 24 1 0
BITMAP
1e000e00
7f000e00
73800e00
61800e00
e1800e00
61800e00
77800e00
3f870e60
1f9fce60
0398cee0
0398cec0
0398cfc0
039dcf80
038fff00
0387fe00
03800e00
03800e00
03800e00
03800e00
03800e00
03800e00
03801e00
1ffffc00
1ffff800
ENDCHAR
STARTCHAR Ecircumflex
ENCODING 202
SWIDTH 345 0
DWIDTH 24 0
BBX 20 26 2 0
BITMAP
000060
000060
07f8e0
1fffc0
3c0fc0
7003c0
e007c0
4007e0
000ce0
0ff8e0
1ff8e0
3cf0e0
3838e0
701ce0
701ce0
700ee0
7006e0
7007e0
7f03e0
7f83e0
79c3e0
70c1e0
70c1e0
30c1e0
3fc0e0
1f80e0
ENDCHAR
STARTCHAR Ediaeresis
ENCODING 203
SWIDTH 403 0
DWIDTH 28 0
BBX 23 24 1 0
BITMAP
1e0078
7f00fc
7381ce
618186
e18186
61818e
7781fe
3f80fc
1f81f8
0383dc
038f0e
039e0e
03bc0e
03b80e
03f00e
03f00e
03e00e
03c00e
03c00e
03800e
03800e
03800e
03800e
03800e
ENDCHAR
STARTCHAR Igrave
ENCODING 204
SWIDTH 432 0
DWIDTH 30 0
BBX 30 27 1 0
BITMAP
00000f00
00001f8c
0000399c
1c0031f8
3f0139f8
73811fe0
61818fc0
e1838380
6183c380
7783c380
3f87c380
1f86e380
038e6380
038c7380
039c3380
039c3380
03b81b80
03b81b80
03f00f80
03f00f80
03e00f80
03e00780
03c00780
03c00380
03800380
03800380
03800380
ENDCHAR
STARTCHAR Iacute
ENCODING 205
SWIDTH 360 0
DWIDTH 25 0
BBX 18 24 3 0
BITMAP
07f800
1ffe00
3c1f00
f00780
e00380
4001c0
0001c0
1e01c0
3f01c0
7381c0
6181c0
6181c0
7181c0
7f81c0
7f01c0
7401c0
7001c0
7001c0
7001c0
7001c0
7001c0
7801c0
3fff80
1fff00
ENDCHAR
STARTCHAR Icircumflex
ENCODING 206
SWIDTH 360 0
DWIDTH 25 0
BBX 21 24 3 0
BITMAP
0ff810
3ffe38
780ff0
e003e0
e001c0
f00fc0
3fffc0
0ff1c0
0001c0
0c01c0
3f01c0
3f81c0
6181c0
6181c0
6181c0
7381c0
7f01c0
7e01c0
7001c0
7001c0
7001c0
7801c0
7fff80
3fff00
ENDCHAR
STARTCHAR Idiaeresis
ENCODING 207
SWIDTH 331 0
DWIDTH 23 0
BBX 18 25 2 -1
BITMAP
1f01c0
7f01c0
7181c0
6183c0
e183c0
f183c0
ff07c0
7e07c0
700fc0
701dc0
3c79c0
1ff1c0
07c1c0
0001c0
0001c0
0001c0
0001c0
0001c0
0001c0
0003c0
000780
000f80
007f00
003c00
003000
ENDCHAR
STARTCHAR ETH
ENCODING 208
SWIDTH 273 0
DWIDTH 19 0
BBX 15 24 2 0
BITMAP
3c0e
7e0e
c30e
c30e
c31c
e73c
7ff8
3fe0
0700
0000
0000
0000
0000
0000
0000
0800
7e0e
670e
c30e
c31c
c31c
7f78
7ff0
1fc0
ENDCHAR
STARTCHAR Ntilde
ENCODING 209
SWIDTH 0 0
DWIDTH 0 0
BBX 21 10 -15 28
BITMAP
080000
7e0020
7f0038
e30078
c300f0
e301e0
ff03c0
7f1f80
3fff00
0ff800
ENDCHAR
STARTCHAR Ograve
ENCODING 210
SWIDTH 288 0
DWIDTH 20 0
BBX 16 24 1 0
BITMAP
0ff0
1ffc
3c3e
700e
e00f
4007
0007
0007
0007
0007
0007
0007
0007
0007
0007
0007
0007
0007
0007
0007
0007
0007
0007
0007
ENDCHAR
STARTCHAR Oacute
ENCODING 211
SWIDTH 288 0
DWIDTH 20 0
BBX 26 36 -9 0
BITMAP
7e000000
fe000000
c3000000
c3000000
c3000000
c3000000
7e000000
3c000000
00000000
00000000
00000000
00000000
0003fc00
0007ff00
000f0f80
001c0380
003803c0
001001c0
000001c0
000001c0
000001c0
000001c0
000001c0
000001c0
000001c0
000001c0
000001c0
000001c0
000001c0
000001c0
000001c0
000001c0
000001c0
000001c0
000001c0
000001c0
ENDCHAR
STARTCHAR Ocircumflex
ENCODING 212
SWIDTH 0 0
DWIDTH 0 0
BBX 19 9 -22 28
BITMAP
03f800
0ffe00
1c0f00
380380
700180
7ff8c0
ffffc0
800fe0
0000e0
ENDCHAR
STARTCHAR Otilde
ENCODING 213
SWIDTH 43 0
DWIDTH 3 0
BBX 19 12 -21 28
BITMAP
0000e0
0000e0
0000e0
03f8e0
0ffee0
1e07e0
3803e0
7001e0
7ff8e0
ffffe0
800fe0
000060
ENDCHAR
STARTCHAR Odiaeresis
ENCODING 214
SWIDTH 0 0
DWIDTH 0 0
BBX 20 13 -22 28
BITMAP
000180
0007e0
000670
008e70
07fe70
0ffe70
1e0fe0
3803c0
7001c0
7ff8c0
ffffe0
800fe0
0000e0
ENDCHAR
STARTCHAR multiply
ENCODING 215
SWIDTH 43 0
DWIDTH 3 0
BBX 19 12 -21 28
BITMAP
001ce0
001ce0
005ce0
07fce0
0ffee0
1c0fe0
3803e0
7001e0
7ff8e0
ffffe0
800fe0
000060
ENDCHAR
STARTCHAR Ooblique
ENCODING 216
SWIDTH 0 0
DWIDTH 0 0
BBX 8 14 -12 -17
BITMAP
3c
7e
e7
c3
c3
c7
7f
7f
07
07
07
07
07
07
ENDCHAR
STARTCHAR Ugrave
ENCODING 217
SWIDTH 0 0
DWIDTH 0 0
BBX 15 15 -19 -18
BITMAP
3e0e
7f0e
638e
e18e
e18e
638e
7f8e
3f8e
038e
038e
038e
038e
03de
01fc
0078
ENDCHAR
STARTCHAR Uacute
ENCODING 218
SWIDTH 0 0
DWIDTH 0 0
BBX 4 5 -7 -9
BITMAP
60
f0
f0
f0
60
ENDCHAR
STARTCHAR Ucircumflex
ENCODING 219
SWIDTH 0 0
DWIDTH 0 0
BBX 5 5 -9 -18
BITMAP
70
f8
f8
f8
20
ENDCHAR
STARTCHAR Udiaeresis
ENCODING 220
SWIDTH 0 0
DWIDTH 0 0
BBX 1 1 0 0
BITMAP
00
ENDCHAR
STARTCHAR Yacute
ENCODING 221
SWIDTH 0 0
DWIDTH 0 0
BBX 1 1 0 0
BITMAP
00
ENDCHAR
STARTCHAR THORN
ENCODING 222
SWIDTH 0 0
DWIDTH 0 0
BBX 1 1 0 0
BITMAP
00
ENDCHAR
STARTCHAR ssharp
ENCODING 223
SWIDTH 0 0
DWIDTH 0 0
BBX 1 1 0 0
BITMAP
00
ENDCHAR
STARTCHAR agrave
ENCODING 224
SWIDTH 201 0
DWIDTH 14 0
BBX 8 24 4 0
BITMAP
e0
e0
e0
e0
e0
e0
e0
e0
e0
e0
e0
e0
e0
e0
e0
e0
fe
ff
e3
c3
c3
e3
7f
3e
ENDCHAR
STARTCHAR aacute
ENCODING 225
SWIDTH 360 0
DWIDTH 25 0
BBX 20 24 4 0
BITMAP
e01c00
e01c00
e01c00
e01c00
e01c00
e01c00
e01c00
e01c00
e01c00
e01c00
e01c00
e01c00
e01c00
e01c00
e01c00
e01c00
fe1fc0
ff1fe0
e31c60
c31860
c31870
e31c60
7f0fe0
3e07c0
ENDCHAR
STARTCHAR acircumflex
ENCODING 226
SWIDTH 216 0
DWIDTH 15 0
BBX 17 43 -2 0
BITMAP
078000
1ff100
7fff80
f81f00
7e0000
0f8000
07c000
01c000
01e000
00e000
00e000
00e000
00e000
00e000
00e000
00e000
00e000
00e000
00e000
00e000
00e000
00e000
00e000
00e000
00e000
00e000
00e000
00e000
00e000
00e000
00e000
00e000
00e000
00e000
00e000
00fc00
00fe00
00e700
00c300
00c300
00e300
007f00
003e00
ENDCHAR
STARTCHAR atilde
ENCODING 227
SWIDTH 216 0
DWIDTH 15 0
BBX 16 43 -2 0
BITMAP
1f00
7fc0
71c0
e0e0
f8e0
ece0
c4e0
c4e0
cce0
7ce0
00e0
00e0
00e0
00e0
00e0
00e0
00e0
00e0
00e0
00e0
00e0
00e0
00e0
00e0
00e0
00e0
00e0
00e0
00e0
00e0
00e0
00e0
00e0
00e0
00e0
00fc
00fe
00e7
00c3
00c3
00e3
007f
003e
ENDCHAR
STARTCHAR adiaeresis
ENCODING 228
SWIDTH 244 0
DWIDTH 17 0
BBX 19 43 -2 0
BITMAP
407000
e0f800
61f800
71f800
31b800
31b800
33b800
3b3800
1b3800
1b3800
1e3800
1e3800
0e3800
043800
003800
003800
003800
003800
003800
003800
003800
003800
003800
003800
003800
003800
003800
003800
003800
003800
003800
003800
003800
003800
003800
003f80
003fc0
0038c0
0030e0
003060
0038e0
001fc0
000f80
ENDCHAR
STARTCHAR aring
ENCODING 229
SWIDTH 288 0
DWIDTH 20 0
BBX 16 36 1 -12
BITMAP
0ff0
1ffc
3c3e
700e
e00f
4007
0007
0007
0007
0007
0007
0007
0007
0007
0007
0007
0007
0007
0007
0007
0007
0007
0007
0007
0007
0007
0007
0007
0007
0007
0007
0007
0007
0007
0007
0007
ENDCHAR
STARTCHAR ae
ENCODING 230
SWIDTH 403 0
DWIDTH 28 0
BBX 17 34 7 -10
BITMAP
0e1c00
1ffe00
3fff00
70c700
600380
e00380
e60380
ff0380
f98380
f08380
718380
718380
3f8380
0f0380
000380
000380
000380
000380
000380
000380
000380
000380
000380
000380
000380
000380
000380
000380
000780
000f00
003e00
007c00
007800
002000
ENDCHAR
STARTCHAR ccedilla
ENCODING 231
SWIDTH 0 0
DWIDTH 0 0
BBX 17 14 -20 27
BITMAP
000180
000180
000380
1fff00
7ffe00
700000
c00000
c01e00
cfbf00
fff300
78e100
707300
303e00
100000
ENDCHAR
STARTCHAR egrave
ENCODING 232
SWIDTH 0 0
DWIDTH 0 0
BBX 3 8 -7 43
BITMAP
e0
e0
e0
e0
e0
e0
e0
e0
ENDCHAR
STARTCHAR eacute
ENCODING 233
SWIDTH 0 0
DWIDTH 0 0
BBX 15 10 -13 41
BITMAP
380e
7c0e
c60e
c60e
c60c
fe0c
7e1c
0c78
1ff0
3fc0
ENDCHAR
STARTCHAR ecircumflex
ENCODING 234
SWIDTH 0 0
DWIDTH 0 0
BBX 16 10 -16 41
BITMAP
1081
7fe3
6763
c223
f833
ec32
c436
447c
7878
1000
ENDCHAR
STARTCHAR ediaeresis
ENCODING 235
SWIDTH 0 0
DWIDTH 0 0
BBX 12 9 -11 42
BITMAP
0e00
0e00
0e00
0e00
fff0
fff0
0e00
0e00
0e00
ENDCHAR
STARTCHAR igrave
ENCODING 236
SWIDTH 0 0
DWIDTH 0 0
BBX 13 12 -11 39
BITMAP
0018
0018
0070
1fe0
7f00
6000
dc00
fe00
e300
e300
7e00
3e00
ENDCHAR
STARTCHAR iacute
ENCODING 237
SWIDTH 0 0
DWIDTH 0 0
BBX 9 9 -12 26
BITMAP
3e00
7f00
e380
e380
c180
e380
7700
7f00
0800
ENDCHAR
STARTCHAR icircumflex
ENCODING 238
SWIDTH 0 0
DWIDTH 0 0
BBX 9 9 -12 33
BITMAP
1e00
7f00
e380
e380
c180
e380
7300
7f00
0c00
ENDCHAR
STARTCHAR idiaeresis
ENCODING 239
SWIDTH 345 0
DWIDTH 24 0
BBX 24 24 0 0
BITMAP
007c00
03ff80
07c7e0
0e00f0
1c0078
38001c
707c1c
70ff0e
63ff8e
e3ffc7
e3ffc7
e7ffc7
e7ffc7
e7ffc7
e3ffc7
e3ffc7
61ff8e
70ff0e
307c1c
38003c
1e0078
0f81e0
03ffc0
00ff00
ENDCHAR
STARTCHAR eth
ENCODING 240
SWIDTH 360 0
DWIDTH 25 0
BBX 20 17 2 0
BITMAP
01fc00
0fff00
1f0780
3c03c0
7801e0
7000e0
f00070
e00070
e00070
e00070
e00070
7000e0
7800e0
3c01c0
1e07c0
0fff80
03fe00
ENDCHAR
STARTCHAR ntilde
ENCODING 241
SWIDTH 360 0
DWIDTH 25 0
BBX 21 19 2 -2
BITMAP
01fe00
07ff80
1e03c0
3c01e0
7800f0
707070
e1fc38
e18c38
e38e38
e38e38
f39e38
71fc38
787c78
3ff870
1ff0f0
07e0e0
0001c0
000380
000100
ENDCHAR
STARTCHAR ograve
ENCODING 242
SWIDTH 432 0
DWIDTH 30 0
BBX 25 25 2 0
BITMAP
30000000
f0000000
78000000
78000000
38000000
38000000
38000000
38000000
383e3e00
387f7f00
38f7f700
39c1c380
39b88380
39fc0380
3bc60380
3b860380
39860380
39c60380
38fc0380
38780380
38000380
1c000380
1e000700
0fffff00
03fffc00
ENDCHAR
STARTCHAR oacute
ENCODING 243
SWIDTH 417 0
DWIDTH 29 0
BBX 23 17 3 0
BITMAP
0f81f0
3fe3f8
78763c
703e1c
e03c0c
e01c0e
e01c0e
e01c0e
e41c0e
ff1c0e
ff9c0e
e19c0e
e19c0e
e19c0c
739c0c
7f1c1c
3e1c18
ENDCHAR
STARTCHAR ocircumflex
ENCODING 244
SWIDTH 417 0
DWIDTH 29 0
BBX 26 27 3 0
BITMAP
000001c0
000001c0
000001c0
000001c0
000001c0
000001c0
00000380
00000380
00000780
00000f00
03fffe00
0ffffc00
1ffff000
3c000000
70100000
707c0000
e0fe0000
e1c70000
e1c70000
e1c70000
e0fe0000
70fc0000
703e0000
780ff000
3c1ffe00
1ffffe00
07fc0600
ENDCHAR
STARTCHAR otilde
ENCODING 245
SWIDTH 417 0
DWIDTH 29 0
BBX 26 27 3 0
BITMAP
000001c0
000001c0
000001c0
000001c0
007c01c0
00fe01c0
00c70380
00c70380
00c70780
00e70f00
03fffe00
0ffffc00
1ffff000
3c000000
70100000
707c0000
e0fe0000
e1c70000
e1c70000
e1c70000
e0fe0000
70fc0000
703e0000
780ff000
3c1ffe00
1ffffe00
07fc0600
ENDCHAR
STARTCHAR odiaeresis
ENCODING 246
SWIDTH 316 0
DWIDTH 22 0
BBX 19 26 1 0
BITMAP
c00000
e00000
600000
700000
300000
300000
380000
180000
1cfc00
1fff00
0fff80
0e07c0
0803c0
0001c0
0000e0
0000e0
0780e0
0fc0e0
1fe0e0
1860e0
1861c0
18e1c0
1fc780
0fff80
07fe00
01fc00
ENDCHAR
STARTCHAR division
ENCODING 247
SWIDTH 432 0
DWIDTH 30 0
BBX 26 26 3 0
BITMAP
00000080
000001c0
000001c0
00000180
00000380
00000380
00000380
00000380
00000380
07070380
1f9fc380
3fffe380
70f8e380
e0f07380
e0707380
e0707380
e0007380
c0007300
ef00f300
ff80e700
f9c0e700
f0c1ee00
70c1dc00
79c3fc00
3f83f800
1f01e000
ENDCHAR
STARTCHAR oslash
ENCODING 248
SWIDTH 417 0
DWIDTH 29 0
BBX 24 26 3 0
BITMAP
000007
000007
000007
000007
000007
000007
000007
000007
000007
03fc1f
1ffffe
3ffffc
7c01f0
700000
e000e0
e003f8
e003b8
c2071c
e7871c
e7c71c
eff3fc
7e79fc
7e3c5c
3e1e3c
1e0ff8
0e07f0
ENDCHAR
STARTCHAR ugrave
ENCODING 249
SWIDTH 374 0
DWIDTH 26 0
BBX 23 26 2 0
BITMAP
00001c
00001c
00000c
00000e
00000e
00000e
00000e
00000e
00000e
00038e
0ff3fe
1ffffc
3c3f3c
780f00
700700
600700
e00380
e00380
e1f1c0
e3f9e0
7718e0
7618f0
3f1870
3f3878
0ff038
07f038
ENDCHAR
STARTCHAR uacute
ENCODING 250
SWIDTH 993 0
DWIDTH 69 0
BBX 68 2 1 10
BITMAP
fffffffffffffffff0
fffffffffffffffff0
ENDCHAR
STARTCHAR ucircumflex
ENCODING 251
SWIDTH 504 0
DWIDTH 35 0
BBX 33 2 1 10
BITMAP
ffffffff80
ffffffff80
ENDCHAR
STARTCHAR udiaeresis
ENCODING 252
SWIDTH 0 0
DWIDTH 0 0
BBX 8 14 -12 -28
BITMAP
3c
7e
e7
c3
c3
e7
7f
3f
07
07
07
07
07
07
ENDCHAR
STARTCHAR yacute
ENCODING 253
SWIDTH 0 0
DWIDTH 0 0
BBX 15 15 -19 -29
BITMAP
3e0e
7f0e
638e
e18e
e18e
638e
7f8e
3f8e
038e
038e
038e
038e
01fe
01fc
0070
ENDCHAR
STARTCHAR thorn
ENCODING 254
SWIDTH 475 0
DWIDTH 33 0
BBX 30 29 1 -1
BITMAP
000fe000
007ffc00
01e01e00
03800380
060001c0
0c7fe0e0
38387870
70383838
70381818
70381818
e038381c
e038381c
e03ff01c
e03fc01c
e039c01c
e038e01c
6038f01c
60387818
30383c18
30381c18
187e1f30
18000070
0c000060
060000e0
070001c0
03800380
00f01e00
007ff800
000fe000
ENDCHAR
STARTCHAR ydiaeresis
ENCODING 255
SWIDTH 0 0
DWIDTH 0 0
BBX 1 1 0 0
BITMAP
00
ENDCHAR
ENDFONT
